<mxfile host="Electron" modified="2023-10-30T22:13:41.685Z" agent="Mozilla/5.0 (Windows NT 10.0; Win64; x64) AppleWebKit/537.36 (KHTML, like Gecko) draw.io/22.0.3 Chrome/114.0.5735.289 Electron/25.8.4 Safari/537.36" etag="aFAAtpWdeen2D6GXXMI3" version="22.0.3" type="device">
  <diagram name="Page-1" id="e3a06f82-3646-2815-327d-82caf3d4e204">
    <mxGraphModel dx="780" dy="542" grid="1" gridSize="10" guides="1" tooltips="1" connect="1" arrows="1" fold="1" page="1" pageScale="1.5" pageWidth="1169" pageHeight="826" background="none" math="0" shadow="0">
      <root>
        <mxCell id="0" style=";html=1;" />
        <mxCell id="1" style=";html=1;" parent="0" />
        <mxCell id="6a7d8f32e03d9370-60" value="Subnetwork 3" style="whiteSpace=wrap;html=1;fillColor=none;fontSize=14;strokeColor=#0000FF;verticalAlign=top;dashed=1;strokeWidth=3;" parent="1" vertex="1">
          <mxGeometry x="1150" y="830" width="300" height="800" as="geometry" />
        </mxCell>
        <mxCell id="6a7d8f32e03d9370-58" value="Subnetwork 1" style="whiteSpace=wrap;html=1;fillColor=none;fontSize=14;strokeColor=#00CC00;verticalAlign=top;dashed=1;strokeWidth=3;" parent="1" vertex="1">
          <mxGeometry x="190" y="950" width="300" height="680" as="geometry" />
        </mxCell>
        <mxCell id="6a7d8f32e03d9370-57" value="Subnetwork 2" style="whiteSpace=wrap;html=1;fillColor=none;gradientColor=none;fontSize=14;strokeColor=#CCCC00;verticalAlign=top;strokeWidth=3;dashed=1;" parent="1" vertex="1">
          <mxGeometry x="190" y="100" width="300" height="800" as="geometry" />
        </mxCell>
        <mxCell id="6a7d8f32e03d9370-36" style="edgeStyle=none;rounded=0;html=1;startSize=10;endSize=10;jettySize=auto;orthogonalLoop=1;fontSize=14;endArrow=none;endFill=0;strokeWidth=2;entryX=0.375;entryY=0.018;entryDx=0;entryDy=0;entryPerimeter=0;exitX=1.016;exitY=0.5;exitDx=0;exitDy=0;exitPerimeter=0;" parent="1" source="6a7d8f32e03d9370-1" target="zKAtz0hzDQlaYeTpemc3-1" edge="1">
          <mxGeometry relative="1" as="geometry">
            <mxPoint x="639" y="1131.1923076923076" as="targetPoint" />
          </mxGeometry>
        </mxCell>
        <mxCell id="6a7d8f32e03d9370-1" value="Client" style="verticalLabelPosition=bottom;aspect=fixed;html=1;verticalAlign=top;strokeColor=none;shape=mxgraph.citrix.laptop_2;fillColor=#66B2FF;gradientColor=#0066CC;fontSize=14;" parent="1" vertex="1">
          <mxGeometry x="360" y="1000" width="107.29" height="80" as="geometry" />
        </mxCell>
        <mxCell id="6a7d8f32e03d9370-34" style="edgeStyle=none;rounded=0;html=1;startSize=10;endSize=10;jettySize=auto;orthogonalLoop=1;fontSize=14;endArrow=none;endFill=0;strokeWidth=2;entryX=-0.011;entryY=0.396;entryDx=0;entryDy=0;entryPerimeter=0;exitX=1.046;exitY=0.8;exitDx=0;exitDy=0;exitPerimeter=0;" parent="1" source="6a7d8f32e03d9370-3" target="zKAtz0hzDQlaYeTpemc3-2" edge="1">
          <mxGeometry relative="1" as="geometry">
            <mxPoint x="637" y="529.146502835539" as="targetPoint" />
          </mxGeometry>
        </mxCell>
        <mxCell id="6a7d8f32e03d9370-3" value="client" style="verticalLabelPosition=bottom;aspect=fixed;html=1;verticalAlign=top;strokeColor=none;shape=mxgraph.citrix.desktop;fillColor=#66B2FF;gradientColor=#0066CC;fontSize=14;" parent="1" vertex="1">
          <mxGeometry x="360" y="450" width="90.82" height="100" as="geometry" />
        </mxCell>
        <mxCell id="6a7d8f32e03d9370-33" style="edgeStyle=none;rounded=0;html=1;startSize=10;endSize=10;jettySize=auto;orthogonalLoop=1;fontSize=14;endArrow=none;endFill=0;strokeWidth=2;entryX=0.163;entryY=0.203;entryDx=0;entryDy=0;entryPerimeter=0;exitX=1.101;exitY=0.8;exitDx=0;exitDy=0;exitPerimeter=0;" parent="1" source="6a7d8f32e03d9370-4" target="zKAtz0hzDQlaYeTpemc3-2" edge="1">
          <mxGeometry relative="1" as="geometry">
            <mxPoint x="637" y="365.14650283553874" as="targetPoint" />
          </mxGeometry>
        </mxCell>
        <mxCell id="6a7d8f32e03d9370-4" value="Client" style="verticalLabelPosition=bottom;aspect=fixed;html=1;verticalAlign=top;strokeColor=none;shape=mxgraph.citrix.desktop;fillColor=#66B2FF;gradientColor=#0066CC;fontSize=14;" parent="1" vertex="1">
          <mxGeometry x="360" y="300" width="90.82" height="100" as="geometry" />
        </mxCell>
        <mxCell id="6a7d8f32e03d9370-32" style="edgeStyle=none;rounded=0;html=1;startSize=10;endSize=10;jettySize=auto;orthogonalLoop=1;fontSize=14;endArrow=none;endFill=0;strokeWidth=2;exitX=1.057;exitY=0.81;exitDx=0;exitDy=0;exitPerimeter=0;entryX=0.388;entryY=0.114;entryDx=0;entryDy=0;entryPerimeter=0;" parent="1" source="6a7d8f32e03d9370-5" target="zKAtz0hzDQlaYeTpemc3-2" edge="1">
          <mxGeometry relative="1" as="geometry">
            <mxPoint x="771" y="585" as="targetPoint" />
          </mxGeometry>
        </mxCell>
        <mxCell id="6a7d8f32e03d9370-5" value="Client" style="verticalLabelPosition=bottom;aspect=fixed;html=1;verticalAlign=top;strokeColor=none;shape=mxgraph.citrix.desktop;fillColor=#66B2FF;gradientColor=#0066CC;fontSize=14;" parent="1" vertex="1">
          <mxGeometry x="360" y="150" width="90.82" height="100" as="geometry" />
        </mxCell>
        <mxCell id="6a7d8f32e03d9370-37" style="edgeStyle=none;rounded=0;html=1;startSize=10;endSize=10;jettySize=auto;orthogonalLoop=1;fontSize=14;endArrow=none;endFill=0;strokeWidth=2;entryX=0.011;entryY=0.116;entryDx=0;entryDy=0;entryPerimeter=0;exitX=1.017;exitY=0.5;exitDx=0;exitDy=0;exitPerimeter=0;" parent="1" source="6a7d8f32e03d9370-6" target="zKAtz0hzDQlaYeTpemc3-1" edge="1">
          <mxGeometry relative="1" as="geometry">
            <mxPoint x="639" y="1149.0515947467165" as="targetPoint" />
          </mxGeometry>
        </mxCell>
        <mxCell id="6a7d8f32e03d9370-6" value="Client" style="verticalLabelPosition=bottom;aspect=fixed;html=1;verticalAlign=top;strokeColor=none;shape=mxgraph.citrix.pda;fillColor=#66B2FF;gradientColor=#0066CC;fontSize=14;" parent="1" vertex="1">
          <mxGeometry x="420" y="1130" width="34.43" height="70" as="geometry" />
        </mxCell>
        <mxCell id="6a7d8f32e03d9370-51" style="edgeStyle=none;rounded=0;html=1;startSize=10;endSize=10;jettySize=auto;orthogonalLoop=1;fontSize=14;endArrow=none;endFill=0;strokeWidth=2;entryX=-0.025;entryY=0.414;entryDx=0;entryDy=0;entryPerimeter=0;exitX=0.578;exitY=0.018;exitDx=0;exitDy=0;exitPerimeter=0;" parent="1" source="6a7d8f32e03d9370-13" target="zKAtz0hzDQlaYeTpemc3-28" edge="1">
          <mxGeometry relative="1" as="geometry">
            <mxPoint x="1146.1770000000001" y="585.375" as="targetPoint" />
          </mxGeometry>
        </mxCell>
        <mxCell id="6a7d8f32e03d9370-56" style="edgeStyle=none;rounded=0;html=1;startSize=10;endSize=10;jettySize=auto;orthogonalLoop=1;fontSize=14;endArrow=none;endFill=0;strokeWidth=2;exitX=0.847;exitY=0.084;exitDx=0;exitDy=0;exitPerimeter=0;" parent="1" source="6a7d8f32e03d9370-13" target="zKAtz0hzDQlaYeTpemc3-22" edge="1">
          <mxGeometry relative="1" as="geometry">
            <mxPoint x="1140" y="820.8158179848319" as="targetPoint" />
          </mxGeometry>
        </mxCell>
        <mxCell id="6a7d8f32e03d9370-13" value="Router" style="verticalLabelPosition=bottom;aspect=fixed;html=1;verticalAlign=top;strokeColor=none;shape=mxgraph.citrix.router;fillColor=#66B2FF;gradientColor=#0066CC;fontSize=14;" parent="1" vertex="1">
          <mxGeometry x="915" y="1271.75" width="55" height="36.5" as="geometry" />
        </mxCell>
        <mxCell id="6a7d8f32e03d9370-48" style="edgeStyle=none;rounded=0;html=1;startSize=10;endSize=10;jettySize=auto;orthogonalLoop=1;fontSize=14;endArrow=none;endFill=0;strokeWidth=2;exitX=0.801;exitY=0.869;exitDx=0;exitDy=0;exitPerimeter=0;entryX=0.207;entryY=0.051;entryDx=0;entryDy=0;entryPerimeter=0;" parent="1" source="zKAtz0hzDQlaYeTpemc3-2" target="6a7d8f32e03d9370-13" edge="1">
          <mxGeometry relative="1" as="geometry">
            <mxPoint x="830" y="820" as="sourcePoint" />
          </mxGeometry>
        </mxCell>
        <mxCell id="zKAtz0hzDQlaYeTpemc3-11" style="edgeStyle=none;rounded=0;html=1;startSize=10;endSize=10;jettySize=auto;orthogonalLoop=1;fontSize=14;endArrow=none;endFill=0;strokeWidth=2;entryX=0.229;entryY=0.982;entryDx=0;entryDy=0;entryPerimeter=0;exitX=0.988;exitY=0.6;exitDx=0;exitDy=0;exitPerimeter=0;" parent="1" source="zKAtz0hzDQlaYeTpemc3-9" target="zKAtz0hzDQlaYeTpemc3-1" edge="1">
          <mxGeometry relative="1" as="geometry">
            <mxPoint x="734.5" y="1537" as="targetPoint" />
            <mxPoint x="466.5" y="1602" as="sourcePoint" />
          </mxGeometry>
        </mxCell>
        <mxCell id="6a7d8f32e03d9370-62" value="AI-DOJO DEMO 2023" style="text;strokeColor=none;fillColor=none;html=1;fontSize=24;fontStyle=1;verticalAlign=middle;align=center;" parent="1" vertex="1">
          <mxGeometry x="190" y="40" width="1260" height="40" as="geometry" />
        </mxCell>
        <mxCell id="zKAtz0hzDQlaYeTpemc3-2" value="Switch" style="verticalLabelPosition=bottom;aspect=fixed;html=1;verticalAlign=top;strokeColor=none;shape=mxgraph.citrix.switch;fillColor=#66B2FF;gradientColor=#0066CC;fontSize=14;" parent="1" vertex="1">
          <mxGeometry x="730" y="584.25" width="92" height="41.5" as="geometry" />
        </mxCell>
        <mxCell id="zKAtz0hzDQlaYeTpemc3-4" style="edgeStyle=none;rounded=0;html=1;startSize=10;endSize=10;jettySize=auto;orthogonalLoop=1;fontSize=14;endArrow=none;endFill=0;strokeWidth=2;entryX=0.13;entryY=0.845;entryDx=0;entryDy=0;entryPerimeter=0;exitX=1.035;exitY=0.84;exitDx=0;exitDy=0;exitPerimeter=0;" parent="1" source="zKAtz0hzDQlaYeTpemc3-3" target="zKAtz0hzDQlaYeTpemc3-2" edge="1">
          <mxGeometry relative="1" as="geometry">
            <mxPoint x="455" y="700.4300000000001" as="sourcePoint" />
            <mxPoint x="637" y="697.576502835539" as="targetPoint" />
          </mxGeometry>
        </mxCell>
        <mxCell id="zKAtz0hzDQlaYeTpemc3-3" value="client" style="verticalLabelPosition=bottom;aspect=fixed;html=1;verticalAlign=top;strokeColor=none;shape=mxgraph.citrix.desktop;fillColor=#66B2FF;gradientColor=#0066CC;fontSize=14;" parent="1" vertex="1">
          <mxGeometry x="360" y="600" width="90.82" height="100" as="geometry" />
        </mxCell>
        <mxCell id="zKAtz0hzDQlaYeTpemc3-5" style="edgeStyle=none;rounded=0;html=1;startSize=10;endSize=10;jettySize=auto;orthogonalLoop=1;fontSize=14;endArrow=none;endFill=0;strokeWidth=2;entryX=-0.011;entryY=0.533;entryDx=0;entryDy=0;entryPerimeter=0;exitX=1.035;exitY=0.463;exitDx=0;exitDy=0;exitPerimeter=0;" parent="1" source="zKAtz0hzDQlaYeTpemc3-6" target="zKAtz0hzDQlaYeTpemc3-1" edge="1">
          <mxGeometry relative="1" as="geometry">
            <mxPoint x="692" y="1395" as="targetPoint" />
          </mxGeometry>
        </mxCell>
        <mxCell id="zKAtz0hzDQlaYeTpemc3-6" value="Client" style="verticalLabelPosition=bottom;aspect=fixed;html=1;verticalAlign=top;strokeColor=none;shape=mxgraph.citrix.laptop_2;fillColor=#66B2FF;gradientColor=#0066CC;fontSize=14;" parent="1" vertex="1">
          <mxGeometry x="360" y="1250" width="107.28" height="80" as="geometry" />
        </mxCell>
        <mxCell id="zKAtz0hzDQlaYeTpemc3-7" style="edgeStyle=none;rounded=0;html=1;startSize=10;endSize=10;jettySize=auto;orthogonalLoop=1;fontSize=14;endArrow=none;endFill=0;strokeWidth=2;exitX=1.046;exitY=0.429;exitDx=0;exitDy=0;exitPerimeter=0;entryX=0.011;entryY=0.84;entryDx=0;entryDy=0;entryPerimeter=0;" parent="1" source="zKAtz0hzDQlaYeTpemc3-8" target="zKAtz0hzDQlaYeTpemc3-1" edge="1">
          <mxGeometry relative="1" as="geometry">
            <mxPoint x="692" y="1399" as="targetPoint" />
          </mxGeometry>
        </mxCell>
        <mxCell id="zKAtz0hzDQlaYeTpemc3-8" value="Client" style="verticalLabelPosition=bottom;aspect=fixed;html=1;verticalAlign=top;strokeColor=none;shape=mxgraph.citrix.pda;fillColor=#66B2FF;gradientColor=#0066CC;fontSize=14;" parent="1" vertex="1">
          <mxGeometry x="420" y="1380" width="34.43" height="70" as="geometry" />
        </mxCell>
        <mxCell id="zKAtz0hzDQlaYeTpemc3-1" value="Router" style="verticalLabelPosition=bottom;aspect=fixed;html=1;verticalAlign=top;strokeColor=none;shape=mxgraph.citrix.router;fillColor=#66B2FF;gradientColor=#0066CC;fontSize=14;" parent="1" vertex="1">
          <mxGeometry x="675" y="1271.75" width="55" height="36.5" as="geometry" />
        </mxCell>
        <mxCell id="zKAtz0hzDQlaYeTpemc3-9" value="Client" style="verticalLabelPosition=bottom;aspect=fixed;html=1;verticalAlign=top;strokeColor=none;shape=mxgraph.citrix.laptop_2;fillColor=#66B2FF;gradientColor=#0066CC;fontSize=14;" parent="1" vertex="1">
          <mxGeometry x="360" y="1500" width="107.28" height="80" as="geometry" />
        </mxCell>
        <mxCell id="zKAtz0hzDQlaYeTpemc3-12" value="client" style="verticalLabelPosition=bottom;aspect=fixed;html=1;verticalAlign=top;strokeColor=none;shape=mxgraph.citrix.desktop;fillColor=#66B2FF;gradientColor=#0066CC;fontSize=14;" parent="1" vertex="1">
          <mxGeometry x="360" y="750" width="90.82" height="100" as="geometry" />
        </mxCell>
        <mxCell id="zKAtz0hzDQlaYeTpemc3-13" style="edgeStyle=none;rounded=0;html=1;startSize=10;endSize=10;jettySize=auto;orthogonalLoop=1;fontSize=14;endArrow=none;endFill=0;strokeWidth=2;exitX=1.046;exitY=0.86;exitDx=0;exitDy=0;exitPerimeter=0;entryX=0.279;entryY=0.958;entryDx=0;entryDy=0;entryPerimeter=0;" parent="1" source="zKAtz0hzDQlaYeTpemc3-12" target="zKAtz0hzDQlaYeTpemc3-2" edge="1">
          <mxGeometry relative="1" as="geometry">
            <mxPoint x="490" y="880" as="sourcePoint" />
            <mxPoint x="744" y="835" as="targetPoint" />
          </mxGeometry>
        </mxCell>
        <mxCell id="zKAtz0hzDQlaYeTpemc3-14" value="Perimeter router" style="verticalLabelPosition=bottom;aspect=fixed;html=1;verticalAlign=top;strokeColor=none;shape=mxgraph.citrix.router;fillColor=#66B2FF;gradientColor=#0066CC;fontSize=14;" parent="1" vertex="1">
          <mxGeometry x="890" y="586.75" width="55" height="36.5" as="geometry" />
        </mxCell>
        <mxCell id="zKAtz0hzDQlaYeTpemc3-16" style="edgeStyle=none;rounded=0;html=1;startSize=10;endSize=10;jettySize=auto;orthogonalLoop=1;fontSize=14;endArrow=none;endFill=0;strokeWidth=2;entryX=0.464;entryY=1.014;entryDx=0;entryDy=0;entryPerimeter=0;exitX=0.691;exitY=-0.021;exitDx=0;exitDy=0;exitPerimeter=0;" parent="1" source="zKAtz0hzDQlaYeTpemc3-1" target="zKAtz0hzDQlaYeTpemc3-2" edge="1">
          <mxGeometry relative="1" as="geometry">
            <mxPoint x="730" y="1120" as="sourcePoint" />
            <mxPoint x="771" y="865" as="targetPoint" />
          </mxGeometry>
        </mxCell>
        <mxCell id="zKAtz0hzDQlaYeTpemc3-17" style="edgeStyle=none;rounded=0;html=1;startSize=10;endSize=10;jettySize=auto;orthogonalLoop=1;fontSize=14;endArrow=none;endFill=0;strokeWidth=2;exitX=1.022;exitY=0.548;exitDx=0;exitDy=0;exitPerimeter=0;entryX=-0.018;entryY=0.555;entryDx=0;entryDy=0;entryPerimeter=0;" parent="1" source="zKAtz0hzDQlaYeTpemc3-2" target="zKAtz0hzDQlaYeTpemc3-14" edge="1">
          <mxGeometry relative="1" as="geometry">
            <mxPoint x="982" y="903" as="sourcePoint" />
            <mxPoint x="980" y="710" as="targetPoint" />
          </mxGeometry>
        </mxCell>
        <mxCell id="zKAtz0hzDQlaYeTpemc3-19" value="Mail server" style="verticalLabelPosition=bottom;sketch=0;aspect=fixed;html=1;verticalAlign=top;strokeColor=none;align=center;outlineConnect=0;shape=mxgraph.citrix.file_server;" parent="1" vertex="1">
          <mxGeometry x="1200" y="1330" width="73.2" height="100" as="geometry" />
        </mxCell>
        <mxCell id="zKAtz0hzDQlaYeTpemc3-20" value="FTP server" style="verticalLabelPosition=bottom;sketch=0;aspect=fixed;html=1;verticalAlign=top;strokeColor=none;align=center;outlineConnect=0;shape=mxgraph.citrix.ftp_server;" parent="1" vertex="1">
          <mxGeometry x="1200" y="1480" width="73.2" height="100" as="geometry" />
        </mxCell>
        <mxCell id="zKAtz0hzDQlaYeTpemc3-21" value="Communication server" style="verticalLabelPosition=bottom;sketch=0;aspect=fixed;html=1;verticalAlign=top;strokeColor=none;align=center;outlineConnect=0;shape=mxgraph.citrix.database_server;" parent="1" vertex="1">
          <mxGeometry x="1200" y="1180" width="88.89" height="100" as="geometry" />
        </mxCell>
        <mxCell id="zKAtz0hzDQlaYeTpemc3-22" value="DB server" style="verticalLabelPosition=bottom;sketch=0;aspect=fixed;html=1;verticalAlign=top;strokeColor=none;align=center;outlineConnect=0;shape=mxgraph.citrix.database_server;" parent="1" vertex="1">
          <mxGeometry x="1200" y="1030" width="88.89" height="100" as="geometry" />
        </mxCell>
        <mxCell id="zKAtz0hzDQlaYeTpemc3-25" style="edgeStyle=none;rounded=0;html=1;startSize=10;endSize=10;jettySize=auto;orthogonalLoop=1;fontSize=14;endArrow=none;endFill=0;strokeWidth=2;exitX=1.029;exitY=0.248;exitDx=0;exitDy=0;exitPerimeter=0;" parent="1" source="6a7d8f32e03d9370-13" target="zKAtz0hzDQlaYeTpemc3-21" edge="1">
          <mxGeometry relative="1" as="geometry">
            <mxPoint x="1021.7649999999999" y="1323.0840000000003" as="sourcePoint" />
            <mxPoint x="1180.29" y="1230" as="targetPoint" />
          </mxGeometry>
        </mxCell>
        <mxCell id="zKAtz0hzDQlaYeTpemc3-26" style="edgeStyle=none;rounded=0;html=1;startSize=10;endSize=10;jettySize=auto;orthogonalLoop=1;fontSize=14;endArrow=none;endFill=0;strokeWidth=2;exitX=1.044;exitY=0.686;exitDx=0;exitDy=0;exitPerimeter=0;" parent="1" source="6a7d8f32e03d9370-13" target="zKAtz0hzDQlaYeTpemc3-19" edge="1">
          <mxGeometry relative="1" as="geometry">
            <mxPoint x="1020" y="1340" as="sourcePoint" />
            <mxPoint x="1120.29" y="1477.75" as="targetPoint" />
          </mxGeometry>
        </mxCell>
        <mxCell id="zKAtz0hzDQlaYeTpemc3-27" style="edgeStyle=none;rounded=0;html=1;startSize=10;endSize=10;jettySize=auto;orthogonalLoop=1;fontSize=14;endArrow=none;endFill=0;strokeWidth=2;exitX=0.833;exitY=1.015;exitDx=0;exitDy=0;exitPerimeter=0;" parent="1" source="6a7d8f32e03d9370-13" target="zKAtz0hzDQlaYeTpemc3-20" edge="1">
          <mxGeometry relative="1" as="geometry">
            <mxPoint x="1020.8849999999998" y="1331.8075" as="sourcePoint" />
            <mxPoint x="1050" y="1510" as="targetPoint" />
          </mxGeometry>
        </mxCell>
        <mxCell id="zKAtz0hzDQlaYeTpemc3-28" value="Web server" style="verticalLabelPosition=bottom;sketch=0;aspect=fixed;html=1;verticalAlign=top;strokeColor=none;align=center;outlineConnect=0;shape=mxgraph.citrix.cache_server;" parent="1" vertex="1">
          <mxGeometry x="1200" y="880" width="72.82" height="100" as="geometry" />
        </mxCell>
        <mxCell id="zKAtz0hzDQlaYeTpemc3-29" value="Wordpress" style="text;html=1;strokeColor=none;fillColor=none;align=center;verticalAlign=middle;whiteSpace=wrap;rounded=0;" parent="1" vertex="1">
          <mxGeometry x="1310" y="915" width="120" height="60" as="geometry" />
        </mxCell>
        <mxCell id="zKAtz0hzDQlaYeTpemc3-30" value="MySQL" style="text;html=1;strokeColor=none;fillColor=none;align=center;verticalAlign=middle;whiteSpace=wrap;rounded=0;" parent="1" vertex="1">
          <mxGeometry x="1310" y="1065" width="120" height="60" as="geometry" />
        </mxCell>
        <mxCell id="zKAtz0hzDQlaYeTpemc3-31" value="Messaging app" style="text;html=1;strokeColor=none;fillColor=none;align=center;verticalAlign=middle;whiteSpace=wrap;rounded=0;" parent="1" vertex="1">
          <mxGeometry x="1310" y="1215" width="120" height="60" as="geometry" />
        </mxCell>
        <mxCell id="zKAtz0hzDQlaYeTpemc3-32" value="Haraka" style="text;html=1;strokeColor=none;fillColor=none;align=center;verticalAlign=middle;whiteSpace=wrap;rounded=0;" parent="1" vertex="1">
          <mxGeometry x="1310" y="1365" width="120" height="60" as="geometry" />
        </mxCell>
        <mxCell id="zKAtz0hzDQlaYeTpemc3-33" value="vsftpd" style="text;html=1;strokeColor=none;fillColor=none;align=center;verticalAlign=middle;whiteSpace=wrap;rounded=0;" parent="1" vertex="1">
          <mxGeometry x="1310" y="1515" width="120" height="60" as="geometry" />
        </mxCell>
        <mxCell id="y8spot37b6_3AdxDrWPv-1" value="Internet" style="whiteSpace=wrap;html=1;fillColor=none;gradientColor=none;fontSize=14;strokeColor=#FF0000;verticalAlign=top;strokeWidth=3;dashed=1;" parent="1" vertex="1">
          <mxGeometry x="970" y="430" width="480" height="350" as="geometry" />
        </mxCell>
        <mxCell id="y8spot37b6_3AdxDrWPv-3" value="C2 server" style="verticalLabelPosition=bottom;aspect=fixed;html=1;verticalAlign=top;strokeColor=none;shape=mxgraph.citrix.desktop;fillColor=#66B2FF;gradientColor=#0066CC;fontSize=14;" parent="1" vertex="1">
          <mxGeometry x="1020" y="480" width="90.82" height="100" as="geometry" />
        </mxCell>
        <mxCell id="y8spot37b6_3AdxDrWPv-4" style="edgeStyle=none;rounded=0;html=1;startSize=10;endSize=10;jettySize=auto;orthogonalLoop=1;fontSize=14;endArrow=none;endFill=0;strokeWidth=2;exitX=1.056;exitY=0.247;exitDx=0;exitDy=0;exitPerimeter=0;entryX=-0.015;entryY=0.805;entryDx=0;entryDy=0;entryPerimeter=0;" parent="1" source="zKAtz0hzDQlaYeTpemc3-14" target="y8spot37b6_3AdxDrWPv-3" edge="1">
          <mxGeometry relative="1" as="geometry">
            <mxPoint x="834" y="617" as="sourcePoint" />
            <mxPoint x="899" y="617" as="targetPoint" />
          </mxGeometry>
        </mxCell>
        <mxCell id="y8spot37b6_3AdxDrWPv-5" value="linux" style="text;html=1;strokeColor=none;fillColor=none;align=center;verticalAlign=middle;whiteSpace=wrap;rounded=0;" parent="1" vertex="1">
          <mxGeometry x="220" y="1010" width="120" height="60" as="geometry" />
        </mxCell>
        <mxCell id="y8spot37b6_3AdxDrWPv-6" value="linux" style="text;html=1;strokeColor=none;fillColor=none;align=center;verticalAlign=middle;whiteSpace=wrap;rounded=0;" parent="1" vertex="1">
          <mxGeometry x="220" y="1135" width="120" height="60" as="geometry" />
        </mxCell>
        <mxCell id="y8spot37b6_3AdxDrWPv-7" value="linux" style="text;html=1;strokeColor=none;fillColor=none;align=center;verticalAlign=middle;whiteSpace=wrap;rounded=0;" parent="1" vertex="1">
          <mxGeometry x="220" y="1260" width="120" height="60" as="geometry" />
        </mxCell>
        <mxCell id="y8spot37b6_3AdxDrWPv-8" value="linux" style="text;html=1;strokeColor=none;fillColor=none;align=center;verticalAlign=middle;whiteSpace=wrap;rounded=0;" parent="1" vertex="1">
          <mxGeometry x="220" y="1385" width="120" height="60" as="geometry" />
        </mxCell>
        <mxCell id="y8spot37b6_3AdxDrWPv-9" value="linux" style="text;html=1;strokeColor=none;fillColor=none;align=center;verticalAlign=middle;whiteSpace=wrap;rounded=0;" parent="1" vertex="1">
          <mxGeometry x="220" y="1515" width="120" height="60" as="geometry" />
        </mxCell>
        <mxCell id="y8spot37b6_3AdxDrWPv-10" value="linux with a developer account" style="text;html=1;strokeColor=none;fillColor=none;align=center;verticalAlign=middle;whiteSpace=wrap;rounded=0;" parent="1" vertex="1">
          <mxGeometry x="220" y="170" width="120" height="60" as="geometry" />
        </mxCell>
        <mxCell id="y8spot37b6_3AdxDrWPv-11" value="linux" style="text;html=1;strokeColor=none;fillColor=none;align=center;verticalAlign=middle;whiteSpace=wrap;rounded=0;" parent="1" vertex="1">
          <mxGeometry x="220" y="320.0000000000001" width="120" height="60" as="geometry" />
        </mxCell>
        <mxCell id="y8spot37b6_3AdxDrWPv-12" value="linux" style="text;html=1;strokeColor=none;fillColor=none;align=center;verticalAlign=middle;whiteSpace=wrap;rounded=0;" parent="1" vertex="1">
          <mxGeometry x="220" y="470.0000000000001" width="120" height="60" as="geometry" />
        </mxCell>
        <mxCell id="y8spot37b6_3AdxDrWPv-13" value="linux" style="text;html=1;strokeColor=none;fillColor=none;align=center;verticalAlign=middle;whiteSpace=wrap;rounded=0;" parent="1" vertex="1">
          <mxGeometry x="220" y="620.0000000000001" width="120" height="60" as="geometry" />
        </mxCell>
        <mxCell id="y8spot37b6_3AdxDrWPv-14" value="linux" style="text;html=1;strokeColor=none;fillColor=none;align=center;verticalAlign=middle;whiteSpace=wrap;rounded=0;" parent="1" vertex="1">
          <mxGeometry x="220" y="770.0000000000001" width="120" height="60" as="geometry" />
        </mxCell>
        <mxCell id="y8spot37b6_3AdxDrWPv-15" value="Worker, Empire, Metasploit" style="text;html=1;strokeColor=none;fillColor=none;align=center;verticalAlign=middle;whiteSpace=wrap;rounded=0;" parent="1" vertex="1">
          <mxGeometry x="1130" y="500" width="120" height="60" as="geometry" />
        </mxCell>
      </root>
    </mxGraphModel>
  </diagram>
</mxfile>
